<?xml version="1.0" encoding="UTF-8" standalone="no" ?>
<!DOCTYPE svg PUBLIC "-//W3C//DTD SVG 1.1//EN" "http://www.w3.org/Graphics/SVG/1.1/DTD/svg11.dtd">
<svg xmlns="http://www.w3.org/2000/svg" xmlns:xlink="http://www.w3.org/1999/xlink" version="1.1" width="250" height="250" viewBox="0 0 500 500" xml:space="preserve">
<desc>Created with Fabric.js 4.6.0</desc>
<defs>
</defs>
<g transform="matrix(1 0 0 1 260 188.73)" id="rPB-dhwaFGzaOb2yU0Pb8"  >
<path style="stroke: rgb(0,0,0); stroke-width: 1; stroke-dasharray: none; stroke-linecap: butt; stroke-dashoffset: 0; stroke-linejoin: miter; stroke-miterlimit: 4; fill: rgb(255,255,255); fill-opacity: 0; fill-rule: nonzero; opacity: 1;" vector-effect="non-scaling-stroke"  transform=" translate(0, 0)" d="M 0 0" stroke-linecap="round" />
</g>
<g transform="matrix(2.47 0 0 2.47 249.39 250)" id="TaMhnobDdpLAoJbu0T-KM"  >
<path style="stroke: none; stroke-width: 1; stroke-dasharray: none; stroke-linecap: butt; stroke-dashoffset: 0; stroke-linejoin: miter; stroke-miterlimit: 4; fill: rgb(27,31,35); fill-opacity: 0.5; fill-rule: evenodd; opacity: 1;" vector-effect="non-scaling-stroke"  transform=" translate(0, 0)" d="M 0 -97.53302 C -55.25 -97.53302 -100 -52.78301999999999 -100 2.4669800000000066 C -100 46.71698000000001 -71.375 84.09198 -31.625 97.34198 C -26.625 98.21698 -24.75 95.21698 -24.75 92.59198 C -24.75 90.21698 -24.875 82.34198 -24.875 73.96698 C -50 78.59198 -56.5 67.84198 -58.5 62.21698000000001 C -59.625 59.34198000000001 -64.5 50.46698000000001 -68.75 48.09198000000001 C -72.25 46.21698000000001 -77.25 41.59198000000001 -68.875 41.46698000000001 C -61 41.34198000000001 -55.375 48.71698000000001 -53.5 51.71698000000001 C -44.5 66.84198 -30.125 62.59198000000001 -24.375 59.96698000000001 C -23.5 53.46698000000001 -20.875 49.09198000000001 -18 46.59198000000001 C -40.25 44.09198000000001 -63.5 35.46698000000001 -63.5 -2.7830199999999934 C -63.5 -13.658019999999993 -59.625 -22.658019999999993 -53.25 -29.658019999999993 C -54.25 -32.15801999999999 -57.75 -42.40801999999999 -52.25 -56.15801999999999 C -52.25 -56.15801999999999 -43.875 -58.78301999999999 -24.75 -45.90801999999999 C -16.75 -48.15801999999999 -8.25 -49.28301999999999 0.25 -49.28301999999999 C 8.75 -49.28301999999999 17.25 -48.15801999999999 25.25 -45.90801999999999 C 44.375 -58.90801999999999 52.75 -56.15801999999999 52.75 -56.15801999999999 C 58.25 -42.40801999999999 54.75 -32.15801999999999 53.75 -29.658019999999993 C 60.125 -22.658019999999993 64 -13.783019999999993 64 -2.7830199999999934 C 64 35.59198000000001 40.625 44.09198000000001 18.375 46.59198000000001 C 22 49.71698000000001 25.125 55.71698000000001 25.125 65.09198 C 25.125 78.46698 25 89.21698 25 92.59198 C 25 95.21698 26.875 98.34198 31.875 97.34198 C 71.375 84.09198 100 46.59198000000001 100 2.4669800000000066 C 100 -52.78301999999999 55.25 -97.53302 0 -97.53302 z" stroke-linecap="round" />
</g>
</svg>