<?xml version="1.0" encoding="UTF-8" standalone="no" ?>
<!DOCTYPE svg PUBLIC "-//W3C//DTD SVG 1.1//EN" "http://www.w3.org/Graphics/SVG/1.1/DTD/svg11.dtd">
<svg xmlns="http://www.w3.org/2000/svg" xmlns:xlink="http://www.w3.org/1999/xlink" version="1.1" width="250" height="250" viewBox="0 0 500 500" xml:space="preserve">
<desc>Created with Fabric.js 4.6.0</desc>
<defs>
</defs>
<g transform="matrix(4.92 0 0 4.92 250.24 250)" id="IOBj-VrrRvlywGQEiFZ4u"  >
<path style="stroke: rgb(143,15,74); stroke-width: 0; stroke-dasharray: none; stroke-linecap: butt; stroke-dashoffset: 0; stroke-linejoin: miter; stroke-miterlimit: 4; fill: rgb(0,0,0); fill-opacity: 0.5; fill-rule: nonzero; opacity: 1;" vector-effect="non-scaling-stroke"  transform=" translate(0, 0)" d="M 0 -50 C 27.6 -50 50 -27.6 50 0 C 50 27.6 27.6 50 0 50 C -27.6 50 -50 27.6 -50 0 C -50 -27.6 -27.6 -50 0 -50 z" stroke-linecap="round" />
</g>
<g transform="matrix(1.89 0 0 1.89 250.24 250)" id="P5C6neDj0NfbcZiZz2dFW"  >
<path style="stroke: rgb(184,224,133); stroke-width: 0; stroke-dasharray: none; stroke-linecap: butt; stroke-dashoffset: 0; stroke-linejoin: miter; stroke-miterlimit: 4; fill: rgb(255,255,255); fill-rule: nonzero; opacity: 1;" vector-effect="non-scaling-stroke"  transform=" translate(0, 0)" d="M -87.47271 -50.44683 C -87.47271 -70.89565999999999 -70.89566 -87.47271 -50.446830000000006 -87.47271 L 50.44682999999999 -87.47271 L 50.44682999999999 -87.47271 C 70.89565999999999 -87.47271 87.47270999999999 -70.89566 87.47270999999999 -50.446830000000006 L 87.47270999999999 50.44682999999999 L 87.47270999999999 50.44682999999999 C 87.47270999999999 70.89565999999999 70.89565999999999 87.47270999999999 50.44682999999999 87.47270999999999 L -50.446830000000006 87.47270999999999 L -50.446830000000006 87.47270999999999 C -70.89566 87.47270999999999 -87.47271 70.89565999999999 -87.47271 50.44682999999999 z" stroke-linecap="round" />
</g>
<g transform="matrix(1.6 0 0 1.6 250.24 250)" id="JL4y3XCjKB0JwGt_yBbek"  >
<path style="stroke: rgb(184,224,133); stroke-width: 0; stroke-dasharray: none; stroke-linecap: butt; stroke-dashoffset: 0; stroke-linejoin: miter; stroke-miterlimit: 4; fill: rgb(0,0,0); fill-opacity: 0.5; fill-rule: nonzero; opacity: 1;" vector-effect="non-scaling-stroke"  transform=" translate(0, 0)" d="M -87.47271 -50.50391 C -87.47271 -70.92121 -70.92121 -87.47271 -50.503910000000005 -87.47271 L 50.50390999999999 -87.47271 L 50.50390999999999 -87.47271 C 70.92120999999999 -87.47271 87.47270999999999 -70.92121 87.47270999999999 -50.503910000000005 L 87.47270999999999 50.50390999999999 L 87.47270999999999 50.50390999999999 C 87.47270999999999 70.92120999999999 70.92120999999999 87.47270999999999 50.50390999999999 87.47270999999999 L -50.503910000000005 87.47270999999999 L -50.503910000000005 87.47270999999999 C -70.92121 87.47270999999999 -87.47271 70.92120999999999 -87.47271 50.50390999999999 z" stroke-linecap="round" />
</g>
<g transform="matrix(2.2 0 0 2.2 250.24 250)" id="PE_ELXDf81-U461ARQP38"  >
<path style="stroke: rgb(148,176,88); stroke-width: 0; stroke-dasharray: none; stroke-linecap: butt; stroke-dashoffset: 0; stroke-linejoin: miter; stroke-miterlimit: 4; fill: rgb(255,255,255); fill-rule: nonzero; opacity: 1;" vector-effect="non-scaling-stroke"  transform=" translate(0, 0)" d="M 0 -47.48604 C 26.21229 -47.48604 47.48604 -26.212300000000003 47.48604 0 C 47.48604 26.21229 26.212300000000003 47.48604 0 47.48604 C -26.21229 47.48604 -47.48604 26.212300000000003 -47.48604 0 C -47.48604 -26.21229 -26.212300000000003 -47.48604 0 -47.48604 z" stroke-linecap="round" />
</g>
<g transform="matrix(1.76 0 0 1.76 250.24 250)" id="RcW1w3bB9W9nG_M6LkFoE"  >
<path style="stroke: rgb(148,176,88); stroke-width: 0; stroke-dasharray: none; stroke-linecap: butt; stroke-dashoffset: 0; stroke-linejoin: miter; stroke-miterlimit: 4; fill: rgb(0,0,0); fill-opacity: 0.5; fill-rule: nonzero; opacity: 1;" vector-effect="non-scaling-stroke"  transform=" translate(0, 0)" d="M 0 -47.48604 C 26.21229 -47.48604 47.48604 -26.212300000000003 47.48604 0 C 47.48604 26.21229 26.212300000000003 47.48604 0 47.48604 C -26.21229 47.48604 -47.48604 26.212300000000003 -47.48604 0 C -47.48604 -26.21229 -26.212300000000003 -47.48604 0 -47.48604 z" stroke-linecap="round" />
</g>
<g transform="matrix(0.37 0 0 -0.37 351.68 148.59)" id="5gYBaT--Nzfy-TJcwnTRP"  >
<path style="stroke: rgb(148,176,88); stroke-width: 0; stroke-dasharray: none; stroke-linecap: butt; stroke-dashoffset: 0; stroke-linejoin: miter; stroke-miterlimit: 4; fill: rgb(255,255,255); fill-rule: nonzero; opacity: 1;" vector-effect="non-scaling-stroke"  transform=" translate(0, 0)" d="M 0 -47.48604 C 26.21229 -47.48604 47.48604 -26.212300000000003 47.48604 0 C 47.48604 26.21229 26.212300000000003 47.48604 0 47.48604 C -26.21229 47.48604 -47.48604 26.212300000000003 -47.48604 0 C -47.48604 -26.21229 -26.212300000000003 -47.48604 0 -47.48604 z" stroke-linecap="round" />
</g>
</svg>